HIERARCHY
ROOT Hip
{
	OFFSET 0.000000 0.000000 0.000000 
	CHANNELS 6 Xposition Yposition Zposition Zrotation Yrotation Xrotation
	JOINT Abdomen
	{
		OFFSET 0.000000 20.688101 -0.731520 
		CHANNELS 3 Zrotation Xrotation Yrotation
		JOINT Chest
		{
			OFFSET 0.000000 11.704300 -0.487680 
			CHANNELS 3 Zrotation Xrotation Yrotation
			JOINT Neck
			{
				OFFSET 0.000000 22.189400 -2.194560 
				CHANNELS 3 Zrotation Xrotation Yrotation
				JOINT Head
				{
					OFFSET -0.243840 7.071330 1.219200 
					CHANNELS 3 Zrotation Xrotation Yrotation
					End Site
					{
						OFFSET 1.000000 0.000000 0.000000 
					}
				}
			}
			JOINT RightCollar
			{
				OFFSET -2.682240 19.263399 -4.876800 
				CHANNELS 3 Zrotation Xrotation Yrotation
				JOINT RightShoulder
				{
					OFFSET -8.778240 -1.950730 1.463040 
					CHANNELS 3 Zrotation Xrotation Yrotation
					JOINT RightElbow
					{
						OFFSET -28.174200 -1.711500 0.487680 
						CHANNELS 3 Zrotation Xrotation Yrotation
						JOINT RightWrist
						{
							OFFSET -22.587900 0.773209 7.071360 
							CHANNELS 3 Zrotation Xrotation Yrotation
							End Site
							{
								OFFSET -1.692250 -0.517670 -0.607171 
							}
						}
					}
				}
			}
			JOINT LeftCollar
			{
				OFFSET 2.682240 19.263399 -4.876800 
				CHANNELS 3 Zrotation Xrotation Yrotation
				JOINT LeftShoulder
				{
					OFFSET 8.778240 -1.950730 1.463040 
					CHANNELS 3 Zrotation Xrotation Yrotation
					JOINT LeftElbow
					{
						OFFSET 28.174200 -1.711500 0.487680 
						CHANNELS 3 Zrotation Xrotation Yrotation
						JOINT LeftWrist
						{
							OFFSET 22.587900 0.773209 7.071360 
							CHANNELS 3 Zrotation Xrotation Yrotation
							End Site
							{
								OFFSET 1.692250 -0.517670 -0.607171 
							}
						}
					}
				}
			}
		}
	}
	JOINT RightHip
	{
		OFFSET -8.778240 4.350840 1.219200 
		CHANNELS 3 Zrotation Xrotation Yrotation
		JOINT RightKnee
		{
			OFFSET 0.000000 -38.526772 -1.463040 
			CHANNELS 3 Zrotation Xrotation Yrotation
			JOINT RightAnkle
			{
				OFFSET 0.731520 -45.110401 -5.120640 
				CHANNELS 3 Zrotation Xrotation Yrotation
				End Site
				{
					OFFSET -1.122100 -3.699640 12.103000 
				}
			}
		}
	}
	JOINT LeftHip
	{
		OFFSET 8.778240 4.350840 1.219200 
		CHANNELS 3 Zrotation Xrotation Yrotation
		JOINT LeftKnee
		{
			OFFSET 0.000000 -38.526772 -1.463040 
			CHANNELS 3 Zrotation Xrotation Yrotation
			JOINT LeftAnkle
			{
				OFFSET -0.731520 -45.110401 -5.120640 
				CHANNELS 3 Zrotation Xrotation Yrotation
				End Site
				{
					OFFSET 1.122100 -3.699640 12.103000 
				}
			}
		}
	}
}
MOTION
Frames: 6
Frame Time: 0.008333
57.830399 79.326302 -23.752199 2.590300 -8.001200 -2.841200 -2.685440 10.933100 3.784920 -1.933970 -2.798600 0.770134 -2.403000 0.514968 0.521116 0.828615 -39.641800 2.049700 0.000000 0.000000 -0.000000 64.920097 39.513802 17.429600 -23.133101 -17.569401 46.930698 -0.593026 -21.343000 -3.147920 0.000000 0.000000 -0.000000 -86.114197 5.946140 11.566900 9.525440 -3.855320 -16.918400 0.426860 -18.217199 2.651500 -0.335912 -3.679520 9.253760 -1.164440 60.398499 1.268000 1.629450 28.562799 -6.104330 -7.923070 -34.454800 -3.598950 0.560978 46.379601 -0.414999 2.301590 -6.928330 8.534870 
57.998699 79.505302 -22.510099 3.130500 -8.032300 -2.811400 -3.310090 10.952800 3.565490 -1.836820 -2.827510 0.687744 -2.383870 0.483795 0.634429 0.957332 -39.416901 2.324790 0.000000 -0.000000 -0.000000 65.779602 39.540001 17.034901 -22.551001 -16.620300 45.242599 -0.566301 -20.890200 -3.074560 0.000000 -0.000000 -0.000000 -86.254997 6.977480 10.866900 9.879210 -4.062850 -17.584101 0.475416 -19.192301 2.804290 -0.730778 -5.980870 9.077710 -1.357830 62.829899 1.425860 1.842980 27.077999 -7.350080 -8.712620 -33.454800 -3.674870 0.552083 46.199402 -0.415759 2.445700 -7.621460 8.749580 
58.127602 79.730003 -21.226000 3.418200 -7.923900 -2.834000 -3.811370 10.978500 3.320700 -1.752830 -2.854970 0.603802 -2.387470 0.449461 0.735437 1.123950 -39.163799 2.593440 0.000000 -0.000000 -0.000000 66.717400 39.458199 16.559099 -21.919701 -15.644900 43.529701 -0.536788 -20.365400 -2.990300 0.000000 -0.000000 -0.000000 -86.335503 8.032210 10.120800 10.252300 -4.291170 -18.284201 0.520511 -20.061701 2.941900 -1.035220 -8.213720 8.851140 -1.563010 64.976097 1.605250 1.936730 25.197201 -8.632000 -9.398180 -32.394798 -3.760400 0.539145 45.918999 -0.421615 2.576170 -8.258020 8.913180 
58.136398 79.911301 -19.954800 3.222400 -7.666700 -2.923000 -4.105950 11.023600 3.083210 -1.696060 -2.878790 0.528307 -2.427870 0.472553 0.808328 1.246490 -38.973499 2.795720 0.000000 -0.000000 -0.000000 67.700104 39.300499 15.924000 -21.278601 -14.710100 41.882198 -0.514354 -19.949200 -2.924020 0.000000 -0.000000 -0.000000 -86.376999 9.140200 9.343550 10.685100 -4.568230 -19.092699 0.565333 -20.861799 3.070220 -1.150700 -10.382800 8.653080 -1.766380 66.845200 1.791620 1.933360 23.353600 -9.855030 -9.887300 -31.263201 -3.834590 0.523620 45.549900 -0.428552 2.686680 -8.848510 9.009740 
58.094898 80.067703 -18.718700 2.764400 -7.318000 -2.910200 -4.069780 11.118500 2.857220 -1.686800 -2.901300 0.465314 -2.532450 0.579783 0.839047 1.311280 -38.895401 2.905050 0.000000 -0.000000 -0.000000 68.710098 39.066601 15.103200 -20.653299 -13.852900 40.311901 -0.502008 -19.714300 -2.886770 0.000000 -0.000000 -0.000000 -86.375298 10.294800 8.508880 11.188400 -4.899140 -20.044001 0.607412 -21.563299 3.184170 -0.943917 -12.482300 8.499100 -1.958860 68.418701 1.977670 1.848120 21.524000 -11.103000 -10.066600 -30.040701 -3.892580 0.504601 45.073502 -0.435825 2.767030 -9.379810 9.016710 
58.072601 80.418602 -17.422400 2.512600 -7.135400 -2.927600 -3.780630 11.247100 2.626700 -1.712010 -2.922690 0.409029 -2.685850 0.735321 0.839313 1.360860 -38.872898 2.957920 0.000000 -0.000000 -0.000000 69.756798 38.736401 14.147300 -20.029600 -13.046400 38.765598 -0.493754 -19.556200 -2.861750 0.000000 -0.000000 -0.000000 -86.314102 11.484300 7.616610 11.734400 -5.266510 -21.094700 0.643830 -22.160000 3.281750 -0.502439 -14.511800 8.345630 -2.139650 69.699203 2.162710 1.643230 19.530100 -12.392000 -10.015200 -28.739000 -3.946060 0.481533 44.490799 -0.445350 2.819270 -9.852280 8.947640 
